<?xml version="1.0" encoding="utf-8" ?>
<svg baseProfile="full" height="100%" version="1.1" width="100%" xmlns="http://www.w3.org/2000/svg" xmlns:ev="http://www.w3.org/2001/xml-events" xmlns:xlink="http://www.w3.org/1999/xlink"><defs /><polyline fill="none" points="0,0 66,0 100,-57 133,0 200,0 233,-57 200,-115 266,-115 300,-173 333,-115 400,-115 366,-57 400,0 466,0 500,-57 533,0 600,0 633,-57 600,-115 666,-115 700,-173 666,-230 600,-230 633,-288 600,-346 666,-346 700,-404 733,-346 800,-346 833,-404 800,-461 866,-461 900,-519 933,-461 1000,-461 966,-404 1000,-346 1066,-346 1100,-404 1133,-346 1200,-346 1166,-288 1200,-230 1133,-230 1100,-173 1133,-115 1200,-115 1166,-57 1200,0 1266,0 1300,-57 1333,0 1400,0 1433,-57 1400,-115 1466,-115 1500,-173 1533,-115 1600,-115 1566,-57 1600,0 1666,0 1700,-57 1733,0 1800,0" stroke="black" stroke-width="1" /></svg>