<?xml version="1.0" encoding="utf-8" ?>
<svg baseProfile="full" height="100%" version="1.1" width="100%" xmlns="http://www.w3.org/2000/svg" xmlns:ev="http://www.w3.org/2001/xml-events" xmlns:xlink="http://www.w3.org/1999/xlink"><defs /><polyline fill="none" points="0,529 22,529 33,510 44,529 66,529 77,510 66,491 88,491 100,472 111,491 133,491 122,510 133,529 155,529 166,510 177,529 200,529 211,510 200,491 222,491 233,472 222,453 200,453 211,433 200,414 222,414 233,395 244,414 266,414 277,395 266,376 288,376 300,356 311,376 333,376 322,395 333,414 355,414 366,395 377,414 400,414 388,433 400,453 377,453 366,472 377,491 400,491 388,510 400,529 422,529 433,510 444,529 466,529 477,510 466,491 488,491 500,472 511,491 533,491 522,510 533,529 555,529 566,510 577,529 600,529 611,510 600,491 622,491 633,472 622,453 600,453 611,433 600,414 622,414 633,395 644,414 666,414 677,395 666,376 688,376 700,356 688,337 666,337 677,318 666,299 644,299 633,318 622,299 600,299 611,279 600,260 622,260 633,241 622,222 600,222 611,202 600,183 622,183 633,164 644,183 666,183 677,164 666,145 688,145 700,125 711,145 733,145 722,164 733,183 755,183 766,164 777,183 800,183 811,164 800,145 822,145 833,125 822,106 800,106 811,87 800,68 822,68 833,48 844,68 866,68 877,48 866,29 888,29 900,10 911,29 933,29 922,48 933,68 955,68 966,48 977,68 1000,68 988,87 1000,106 977,106 966,125 977,145 999,145 988,164 1000,183 1022,183 1033,164 1044,183 1066,183 1077,164 1066,145 1088,145 1100,125 1111,145 1133,145 1122,164 1133,183 1155,183 1166,164 1177,183 1200,183 1188,202 1200,222 1177,222 1166,241 1177,260 1200,260 1188,279 1200,299 1177,299 1166,318 1155,299 1133,299 1122,318 1133,337 1111,337 1100,356 1111,376 1133,376 1122,395 1133,414 1155,414 1166,395 1177,414 1200,414 1188,433 1200,453 1177,453 1166,472 1177,491 1200,491 1188,510 1200,529 1222,529 1233,510 1244,529 1266,529 1277,510 1266,491 1288,491 1300,472 1311,491 1333,491 1322,510 1333,529 1355,529 1366,510 1377,529 1400,529 1411,510 1400,491 1422,491 1433,472 1422,453 1400,453 1411,433 1400,414 1422,414 1433,395 1444,414 1466,414 1477,395 1466,376 1488,376 1500,356 1511,376 1533,376 1522,395 1533,414 1555,414 1566,395 1577,414 1600,414 1588,433 1600,453 1577,453 1566,472 1577,491 1600,491 1588,510 1600,529 1622,529 1633,510 1644,529 1666,529 1677,510 1666,491 1688,491 1700,472 1711,491 1733,491 1722,510 1733,529 1755,529 1766,510 1777,529 1800,529" stroke="black" stroke-width="1" /></svg>