<?xml version="1.0" encoding="utf-8" ?>
<svg baseProfile="full" height="100%" version="1.1" width="100%" xmlns="http://www.w3.org/2000/svg" xmlns:ev="http://www.w3.org/2001/xml-events" xmlns:xlink="http://www.w3.org/1999/xlink"><defs /><polyline fill="none" points="0,0 22,0 33,-19 44,0 66,0 77,-19 66,-38 88,-38 100,-57 111,-38 133,-38 122,-19 133,0 155,0 166,-19 177,0 200,0 211,-19 200,-38 222,-38 233,-57 222,-76 200,-76 211,-96 200,-115 222,-115 233,-134 244,-115 266,-115 277,-134 266,-153 288,-153 300,-173 311,-153 333,-153 322,-134 333,-115 355,-115 366,-134 377,-115 400,-115 388,-96 400,-76 377,-76 366,-57 377,-38 400,-38 388,-19 400,0 422,0 433,-19 444,0 466,0 477,-19 466,-38 488,-38 500,-57 511,-38 533,-38 522,-19 533,0 555,0 566,-19 577,0 600,0 611,-19 600,-38 622,-38 633,-57 622,-76 600,-76 611,-96 600,-115 622,-115 633,-134 644,-115 666,-115 677,-134 666,-153 688,-153 700,-173 688,-192 666,-192 677,-211 666,-230 644,-230 633,-211 622,-230 600,-230 611,-250 600,-269 622,-269 633,-288 622,-307 600,-307 611,-327 600,-346 622,-346 633,-365 644,-346 666,-346 677,-365 666,-384 688,-384 700,-404 711,-384 733,-384 722,-365 733,-346 755,-346 766,-365 777,-346 800,-346 811,-365 800,-384 822,-384 833,-404 822,-423 800,-423 811,-442 800,-461 822,-461 833,-481 844,-461 866,-461 877,-481 866,-500 888,-500 900,-519 911,-500 933,-500 922,-481 933,-461 955,-461 966,-481 977,-461 1000,-461 988,-442 1000,-423 977,-423 966,-404 977,-384 999,-384 988,-365 1000,-346 1022,-346 1033,-365 1044,-346 1066,-346 1077,-365 1066,-384 1088,-384 1100,-404 1111,-384 1133,-384 1122,-365 1133,-346 1155,-346 1166,-365 1177,-346 1200,-346 1188,-327 1200,-307 1177,-307 1166,-288 1177,-269 1200,-269 1188,-250 1200,-230 1177,-230 1166,-211 1155,-230 1133,-230 1122,-211 1133,-192 1111,-192 1100,-173 1111,-153 1133,-153 1122,-134 1133,-115 1155,-115 1166,-134 1177,-115 1200,-115 1188,-96 1200,-76 1177,-76 1166,-57 1177,-38 1200,-38 1188,-19 1200,0 1222,0 1233,-19 1244,0 1266,0 1277,-19 1266,-38 1288,-38 1300,-57 1311,-38 1333,-38 1322,-19 1333,0 1355,0 1366,-19 1377,0 1400,0 1411,-19 1400,-38 1422,-38 1433,-57 1422,-76 1400,-76 1411,-96 1400,-115 1422,-115 1433,-134 1444,-115 1466,-115 1477,-134 1466,-153 1488,-153 1500,-173 1511,-153 1533,-153 1522,-134 1533,-115 1555,-115 1566,-134 1577,-115 1600,-115 1588,-96 1600,-76 1577,-76 1566,-57 1577,-38 1600,-38 1588,-19 1600,0 1622,0 1633,-19 1644,0 1666,0 1677,-19 1666,-38 1688,-38 1700,-57 1711,-38 1733,-38 1722,-19 1733,0 1755,0 1766,-19 1777,0 1800,0" stroke="black" stroke-width="1" /></svg>