<?xml version="1.0" encoding="utf-8" ?>
<svg baseProfile="full" height="100%" version="1.1" width="100%" xmlns="http://www.w3.org/2000/svg" xmlns:ev="http://www.w3.org/2001/xml-events" xmlns:xlink="http://www.w3.org/1999/xlink"><defs /><polyline fill="none" points="0,529 66,529 100,472 133,529 200,529 233,472 200,414 266,414 300,356 333,414 400,414 366,472 400,529 466,529 500,472 533,529 600,529 633,472 600,414 666,414 700,356 666,299 600,299 633,241 600,183 666,183 700,125 733,183 800,183 833,125 800,68 866,68 900,10 933,68 1000,68 966,125 1000,183 1066,183 1100,125 1133,183 1200,183 1166,241 1200,299 1133,299 1100,356 1133,414 1200,414 1166,472 1200,529 1266,529 1300,472 1333,529 1400,529 1433,472 1400,414 1466,414 1500,356 1533,414 1600,414 1566,472 1600,529 1666,529 1700,472 1733,529 1800,529" stroke="black" stroke-width="1" /></svg>